<svg version="1.1" id="Layer_1" xmlns="http://www.w3.org/2000/svg" xmlns:xlink="http://www.w3.org/1999/xlink" x="0px" y="0px"
	 width="100%" viewBox="0 0 231 346" enable-background="new 0 0 231 346" xml:space="preserve">
<path fill="#EFECE5" opacity="1.000000" stroke="none" 
	d="
M232.000000,35.000000 
	C232.000000,138.958298 232.000000,242.916580 232.000000,346.937439 
	C155.072632,346.937439 78.145195,346.937439 1.108877,346.937439 
	C1.108877,231.785599 1.108877,116.571053 1.108877,1.000000 
	C68.353806,1.000000 135.708252,1.000000 203.529541,1.206269 
	C203.996399,1.412538 203.993774,1.825083 203.603363,1.913812 
	C197.885406,4.498298 191.754593,6.018672 187.355286,9.641591 
	C146.087952,43.626049 105.117470,77.970963 64.058662,112.208664 
	C61.704514,114.171722 59.328449,116.108490 56.193623,118.690964 
	C56.193623,115.953255 56.195560,114.341927 56.193325,112.730606 
	C56.173019,98.068367 56.403854,83.400284 56.063179,68.745476 
	C55.692627,52.805820 39.979816,40.940163 24.418491,44.426563 
	C11.593964,47.299805 3.457426,57.803364 3.453097,71.696304 
	C3.431761,140.177017 3.442380,208.657745 3.450696,277.138458 
	C3.450878,278.635315 3.462985,280.142883 3.630099,281.627380 
	C5.230619,295.845032 16.889719,305.535736 31.708212,305.001648 
	C44.878193,304.526978 55.924343,293.126129 56.122868,279.416565 
	C56.320671,265.756592 56.178051,252.091736 56.202259,238.429062 
	C56.204746,237.024902 56.327229,235.620941 56.425869,233.547775 
	C58.146061,234.881989 59.311058,235.732941 60.419033,236.652603 
	C101.041771,270.370728 141.660828,304.093262 182.276398,337.820007 
	C194.966370,348.357635 210.930389,347.453186 220.883652,335.617157 
	C230.752304,323.881744 228.754791,307.601868 216.178177,297.200958 
	C210.403122,292.424957 204.634537,287.641083 198.872818,282.848999 
	C161.746063,251.970337 124.622055,221.088394 87.535828,189.868027 
	C91.825905,179.966568 91.883789,170.249741 88.944183,160.192383 
	C132.436096,123.972977 175.583130,87.911324 218.892120,52.045231 
	C224.660980,47.267792 229.255966,41.934048 232.000000,35.000000 
z"/>
<path fill="#0F0F0E" opacity="1.000000" stroke="none" 
	d="
M232.000000,34.536816 
	C229.255966,41.934048 224.660980,47.267792 218.892120,52.045231 
	C175.583130,87.911324 132.436096,123.972977 88.717834,159.935226 
	C87.525322,158.753586 86.856346,157.608398 86.180962,156.467010 
	C76.924568,140.823822 57.355728,134.986877 41.026390,142.997574 
	C24.847429,150.934509 17.488691,170.310654 24.283003,187.084274 
	C30.958366,203.564255 49.473763,212.237122 66.617287,207.039917 
	C75.888794,204.229172 82.207603,197.889221 87.497131,190.207535 
	C124.622055,221.088394 161.746063,251.970337 198.872818,282.848999 
	C204.634537,287.641083 210.403122,292.424957 216.178177,297.200958 
	C228.754791,307.601868 230.752304,323.881744 220.883652,335.617157 
	C210.930389,347.453186 194.966370,348.357635 182.276398,337.820007 
	C141.660828,304.093262 101.041771,270.370728 60.419033,236.652603 
	C59.311058,235.732941 58.146061,234.881989 56.425869,233.547775 
	C56.327229,235.620941 56.204746,237.024902 56.202259,238.429062 
	C56.178051,252.091736 56.320671,265.756592 56.122868,279.416565 
	C55.924343,293.126129 44.878193,304.526978 31.708212,305.001648 
	C16.889719,305.535736 5.230619,295.845032 3.630099,281.627380 
	C3.462985,280.142883 3.450878,278.635315 3.450696,277.138458 
	C3.442380,208.657745 3.431761,140.177017 3.453097,71.696304 
	C3.457426,57.803364 11.593964,47.299805 24.418491,44.426563 
	C39.979816,40.940163 55.692627,52.805820 56.063179,68.745476 
	C56.403854,83.400284 56.173019,98.068367 56.193325,112.730606 
	C56.195560,114.341927 56.193623,115.953255 56.193623,118.690964 
	C59.328449,116.108490 61.704514,114.171722 64.058662,112.208664 
	C105.117470,77.970963 146.087952,43.626049 187.355286,9.641591 
	C191.754593,6.018672 197.885406,4.498298 204.031876,1.986324 
	C207.154846,2.199426 209.507507,2.205890 211.754684,2.696023 
	C222.383957,5.014372 228.311798,12.353725 232.000000,22.000000 
	C232.000000,26.024544 232.000000,30.049088 232.000000,34.536816 
z"/>
<path fill="#E9E6DF" opacity="1.000000" stroke="none" 
	d="
M232.000000,21.531088 
	C228.311798,12.353725 222.383957,5.014372 211.754684,2.696023 
	C209.507507,2.205890 207.154846,2.199426 204.422272,1.897595 
	C203.993774,1.825083 203.996399,1.412538 203.998199,1.206269 
	C213.249084,1.000000 222.498154,1.000000 232.000000,1.000000 
	C232.000000,7.685280 232.000000,14.373728 232.000000,21.531088 
z"/>
<path fill="#5B4FE6" opacity="1.000000" stroke="none" 
	d="
M87.535828,189.868027 
	C82.207603,197.889221 75.888794,204.229172 66.617287,207.039917 
	C49.473763,212.237122 30.958366,203.564255 24.283003,187.084274 
	C17.488691,170.310654 24.847429,150.934509 41.026390,142.997574 
	C57.355728,134.986877 76.924568,140.823822 86.180962,156.467010 
	C86.856346,157.608398 87.525322,158.753586 88.423630,160.154175 
	C91.883789,170.249741 91.825905,179.966568 87.535828,189.868027 
z"/>
</svg>