<svg version="1.1" id="Layer_1" xmlns="http://www.w3.org/2000/svg" xmlns:xlink="http://www.w3.org/1999/xlink" x="0px" y="0px"
	 width="100%" viewBox="0 0 231 346" enable-background="new 0 0 231 346" xml:space="preserve">
<path fill="#FEFEFE" opacity="1.000000" stroke="none" 
	d="
M232.000000,35.000000 
	C232.000000,138.958298 232.000000,242.916580 232.000000,346.937439 
	C155.072632,346.937439 78.145195,346.937439 1.108877,346.937439 
	C1.108877,231.785599 1.108877,116.571053 1.108877,1.000000 
	C68.353806,1.000000 135.708252,1.000000 203.412567,1.367620 
	C196.961151,2.721771 191.372437,5.954819 186.124542,10.348307 
	C143.981766,45.629826 101.735077,80.787224 59.506725,115.966446 
	C58.616920,116.707703 57.566376,117.256012 56.152042,118.181442 
	C56.152042,101.364944 56.290604,85.366997 56.105339,69.372795 
	C55.972694,57.921238 48.282059,48.175373 37.395054,44.983521 
	C19.910107,39.857285 3.470096,52.669735 3.460597,71.563072 
	C3.426162,140.050720 3.446765,208.538422 3.448975,277.026093 
	C3.449013,278.192291 3.418628,279.362885 3.504141,280.523987 
	C4.410336,292.828094 13.642689,302.981781 25.600859,304.852661 
	C37.960346,306.786316 50.503281,299.633484 54.608013,287.810150 
	C55.829201,284.292603 56.080154,280.311493 56.125431,276.535004 
	C56.294235,262.455292 56.192844,248.372360 56.192844,233.494232 
	C57.911987,234.742432 58.970055,235.424301 59.932037,236.222031 
	C75.187881,248.873169 90.431885,261.538574 105.677628,274.201874 
	C131.429459,295.591553 157.213455,316.942749 182.910538,338.397980 
	C189.919373,344.249847 197.798721,346.587036 206.607010,344.444611 
	C217.253555,341.855072 224.086823,334.894684 226.401932,324.213318 
	C228.722565,313.506561 225.140991,304.629333 216.680222,297.607117 
	C173.623215,261.871002 130.604141,226.089172 87.592422,189.976898 
	C91.744461,180.011169 91.908234,170.244461 88.997986,160.145981 
	C132.609421,123.845261 175.877304,87.695129 219.294617,51.725338 
	C224.934738,47.052700 229.298996,41.742191 232.000000,35.000000 
z"/>
<path fill="#0F0F0E" opacity="1.000000" stroke="none" 
	d="
M232.000000,34.536816 
	C229.298996,41.742191 224.934738,47.052700 219.294617,51.725338 
	C175.877304,87.695129 132.609421,123.845261 88.754303,159.907928 
	C87.535240,158.738358 86.853912,157.602173 86.179344,156.461990 
	C76.942970,140.850632 57.342533,135.006516 41.022186,142.998718 
	C24.863764,150.911636 17.495628,170.330658 24.305202,187.057007 
	C31.103065,203.754608 49.836079,212.412430 67.087547,206.926544 
	C76.116676,204.055328 82.196449,197.648926 87.571793,190.323349 
	C130.604141,226.089172 173.623215,261.871002 216.680222,297.607117 
	C225.140991,304.629333 228.722565,313.506561 226.401932,324.213318 
	C224.086823,334.894684 217.253555,341.855072 206.607010,344.444611 
	C197.798721,346.587036 189.919373,344.249847 182.910538,338.397980 
	C157.213455,316.942749 131.429459,295.591553 105.677628,274.201874 
	C90.431885,261.538574 75.187881,248.873169 59.932037,236.222031 
	C58.970055,235.424301 57.911987,234.742432 56.192844,233.494232 
	C56.192844,248.372360 56.294235,262.455292 56.125431,276.535004 
	C56.080154,280.311493 55.829201,284.292603 54.608013,287.810150 
	C50.503281,299.633484 37.960346,306.786316 25.600859,304.852661 
	C13.642689,302.981781 4.410336,292.828094 3.504141,280.523987 
	C3.418628,279.362885 3.449013,278.192291 3.448975,277.026093 
	C3.446765,208.538422 3.426162,140.050720 3.460597,71.563072 
	C3.470096,52.669735 19.910107,39.857285 37.395054,44.983521 
	C48.282059,48.175373 55.972694,57.921238 56.105339,69.372795 
	C56.290604,85.366997 56.152042,101.364944 56.152042,118.181442 
	C57.566376,117.256012 58.616920,116.707703 59.506725,115.966446 
	C101.735077,80.787224 143.981766,45.629826 186.124542,10.348307 
	C191.372437,5.954819 196.961151,2.721771 203.881226,1.367620 
	C204.444443,1.000000 204.888901,1.000000 205.791626,1.378063 
	C219.380478,2.720066 227.553192,9.990365 232.000000,22.000000 
	C232.000000,26.024544 232.000000,30.049088 232.000000,34.536816 
z"/>
<path fill="#F8F8F8" opacity="1.000000" stroke="none" 
	d="
M232.000000,21.531088 
	C227.553192,9.990365 219.380478,2.720066 206.124954,1.378063 
	C214.585068,1.000000 223.170120,1.000000 232.000000,1.000000 
	C232.000000,7.685411 232.000000,14.373794 232.000000,21.531088 
z"/>
<path fill="#5B4FE6" opacity="1.000000" stroke="none" 
	d="
M87.592422,189.976898 
	C82.196449,197.648926 76.116676,204.055328 67.087547,206.926544 
	C49.836079,212.412430 31.103065,203.754608 24.305202,187.057007 
	C17.495628,170.330658 24.863764,150.911636 41.022186,142.998718 
	C57.342533,135.006516 76.942970,140.850632 86.179344,156.461990 
	C86.853912,157.602173 87.535240,158.738358 88.457123,160.114441 
	C91.908234,170.244461 91.744461,180.011169 87.592422,189.976898 
z"/>
</svg>