<svg version="1.1" id="Layer_1" xmlns="http://www.w3.org/2000/svg" xmlns:xlink="http://www.w3.org/1999/xlink" x="0px" y="0px"
	 width="100%" viewBox="0 0 231 346" enable-background="new 0 0 231 346" xml:space="preserve">
<path fill="#FFFFFF" opacity="1.000000" stroke="none" 
	d="
M232.000000,36.000000 
	C232.000000,139.624893 232.000000,243.249802 232.000000,346.937347 
	C155.072830,346.937347 78.145592,346.937347 1.109177,346.937347 
	C1.109177,231.786011 1.109177,116.571877 1.109177,1.000000 
	C67.020462,1.000000 133.041580,1.000000 199.477631,1.354953 
	C197.147034,3.107251 194.055252,4.077191 191.714020,5.973684 
	C179.611069,15.777547 167.688187,25.804138 155.725555,35.780689 
	C142.997925,46.395229 130.311615,57.059311 117.578995,67.667847 
	C102.304413,80.394272 87.003723,93.089394 71.706245,105.788307 
	C66.827751,109.838097 61.923397,113.856735 56.006683,118.733856 
	C56.006683,115.769958 56.006813,114.169182 56.006668,112.568413 
	C56.005360,97.907639 56.066769,83.246521 55.985493,68.586189 
	C55.899414,53.060509 38.746124,40.326801 23.802334,44.598759 
	C10.446326,48.416821 3.026751,58.539341 3.022513,73.156242 
	C3.002858,140.962326 2.987837,208.768448 3.090118,276.574371 
	C3.095263,279.984955 3.848746,283.506531 4.871714,286.783569 
	C8.882583,299.632080 21.151062,307.268097 34.407734,304.851135 
	C45.859196,302.763306 56.563782,291.767578 56.106724,278.696930 
	C55.647053,265.551636 55.996521,252.377716 56.019535,239.216370 
	C56.022289,237.640152 56.201073,236.064224 56.336628,233.866089 
	C57.625195,234.651947 58.345379,234.977188 58.930515,235.464569 
	C77.138229,250.629990 95.306442,265.842926 113.535904,280.982147 
	C136.734268,300.247925 160.013885,319.415955 183.192429,338.705475 
	C195.137787,348.646545 210.530197,347.275543 221.382477,335.110840 
	C230.014359,325.435059 228.914246,308.231415 218.407974,299.059479 
	C206.181015,288.385315 193.434921,278.306091 180.922394,267.958679 
	C170.323929,259.194122 159.727829,250.426666 149.147766,241.639908 
	C136.019516,230.736877 122.885277,219.840836 109.799110,208.887421 
	C101.431190,201.883270 93.145561,194.780792 84.849838,187.319214 
	C87.017029,178.846619 86.393417,170.902863 84.153656,163.009064 
	C86.681793,161.475098 88.976318,160.136154 90.992554,158.462051 
	C103.865143,147.773758 116.661476,136.993683 129.512177,126.278961 
	C142.740356,115.249489 156.001953,104.260094 169.248871,93.253090 
	C180.203629,84.150673 191.399063,75.319374 202.045029,65.869064 
	C212.589874,56.508511 225.680801,49.617859 232.000000,36.000000 
z"/>
<path fill="#F0EDE6" opacity="1.000000" stroke="none" 
	d="
M232.000000,35.533882 
	C225.680801,49.617859 212.589874,56.508511 202.045029,65.869064 
	C191.399063,75.319374 180.203629,84.150673 169.248871,93.253090 
	C156.001953,104.260094 142.740356,115.249489 129.512177,126.278961 
	C116.661476,136.993683 103.865143,147.773758 90.992554,158.462051 
	C88.976318,160.136154 86.681793,161.475098 83.897491,162.793747 
	C82.663818,161.440323 82.093765,160.235916 81.426544,159.087997 
	C72.460358,143.661819 52.838394,137.742081 36.687412,145.577896 
	C20.219088,153.567657 12.716970,172.588165 19.399593,189.408539 
	C26.034508,206.108810 44.489883,215.150238 61.480587,209.951111 
	C72.943352,206.443527 80.311478,198.565338 84.823036,187.722397 
	C93.145561,194.780792 101.431190,201.883270 109.799110,208.887421 
	C122.885277,219.840836 136.019516,230.736877 149.147766,241.639908 
	C159.727829,250.426666 170.323929,259.194122 180.922394,267.958679 
	C193.434921,278.306091 206.181015,288.385315 218.407974,299.059479 
	C228.914246,308.231415 230.014359,325.435059 221.382477,335.110840 
	C210.530197,347.275543 195.137787,348.646545 183.192429,338.705475 
	C160.013885,319.415955 136.734268,300.247925 113.535904,280.982147 
	C95.306442,265.842926 77.138229,250.629990 58.930515,235.464569 
	C58.345379,234.977188 57.625195,234.651947 56.336628,233.866089 
	C56.201073,236.064224 56.022289,237.640152 56.019535,239.216370 
	C55.996521,252.377716 55.647053,265.551636 56.106724,278.696930 
	C56.563782,291.767578 45.859196,302.763306 34.407734,304.851135 
	C21.151062,307.268097 8.882583,299.632080 4.871714,286.783569 
	C3.848746,283.506531 3.095263,279.984955 3.090118,276.574371 
	C2.987837,208.768448 3.002858,140.962326 3.022513,73.156242 
	C3.026751,58.539341 10.446326,48.416821 23.802334,44.598759 
	C38.746124,40.326801 55.899414,53.060509 55.985493,68.586189 
	C56.066769,83.246521 56.005360,97.907639 56.006668,112.568413 
	C56.006813,114.169182 56.006683,115.769958 56.006683,118.733856 
	C61.923397,113.856735 66.827751,109.838097 71.706245,105.788307 
	C87.003723,93.089394 102.304413,80.394272 117.578995,67.667847 
	C130.311615,57.059311 142.997925,46.395229 155.725555,35.780689 
	C167.688187,25.804138 179.611069,15.777547 191.714020,5.973684 
	C194.055252,4.077191 197.147034,3.107251 199.946289,1.354953 
	C203.692902,1.000000 207.385818,1.000000 211.588501,1.351266 
	C217.035309,5.279362 222.060196,8.743399 226.866608,12.487883 
	C228.822220,14.011435 230.303116,16.144337 232.000000,17.999998 
	C232.000000,18.444445 232.000000,18.888889 231.838470,19.762358 
	C231.784622,20.460922 231.892303,20.730463 232.000000,21.000002 
	C232.000000,25.689257 232.000000,30.378511 232.000000,35.533882 
z"/>
<path fill="#FFFFFF" opacity="1.000000" stroke="none" 
	d="
M232.000000,17.529545 
	C230.303116,16.144337 228.822220,14.011435 226.866608,12.487883 
	C222.060196,8.743399 217.035309,5.279362 212.049133,1.351266 
	C218.586136,1.000000 225.172272,1.000000 232.000000,1.000000 
	C232.000000,6.350632 232.000000,11.704863 232.000000,17.529545 
z"/>
<path fill="#FFFFFF" opacity="1.000000" stroke="none" 
	d="
M232.000000,20.750002 
	C231.892303,20.730463 231.784622,20.460922 231.838470,20.095692 
	C232.000000,20.000000 232.000000,20.500000 232.000000,20.750002 
z"/>
<path fill="#5C50E8" opacity="1.000000" stroke="none" 
	d="
M84.849838,187.319214 
	C80.311478,198.565338 72.943352,206.443527 61.480587,209.951111 
	C44.489883,215.150238 26.034508,206.108810 19.399593,189.408539 
	C12.716970,172.588165 20.219088,153.567657 36.687412,145.577896 
	C52.838394,137.742081 72.460358,143.661819 81.426544,159.087997 
	C82.093765,160.235916 82.663818,161.440323 83.535202,162.833771 
	C86.393417,170.902863 87.017029,178.846619 84.849838,187.319214 
z"/>
</svg>